/* XPM */
static char *coin_xpm[] = {
"10 10 2 1",
"0 c #000000",
"1 c #FFFF00",
"0000000000",
"0001100000",
"0011110000",
"0111111000",
"0111111000",
"0111111000",
"0011110000",
"0001100000",
"0000000000",
"0000000000"
};

